<?xml version="1.0" encoding="utf-8"?>
<!-- Generator: Adobe Illustrator 23.0.3, SVG Export Plug-In . SVG Version: 6.00 Build 0)  -->
<svg version="1.1" id="Layer_1" xmlns="http://www.w3.org/2000/svg" xmlns:xlink="http://www.w3.org/1999/xlink" x="0px" y="0px"
	 viewBox="0 0 168 160" style="enable-background:new 0 0 168 160;" xml:space="preserve">
<style type="text/css">
	.st0{fill:#2CD2B1;}
	.st1{opacity:0.4;}
</style>
<path class="st0" d="M152.5,13.6c6.1,12.9,0.4,35.3,2.3,50.9c1.8,15.5,11.3,24.3,12.6,33.5c1.2,9.2-5.7,18.8-12.7,30.3
	c-7.1,11.5-14.2,24.7-24.8,29.1c-10.6,4.3-24.5-0.1-38.8-4c-14.3-4-28.9-7.4-36.1-16.7c-7.1-9.3-6.8-24.5-10.8-40.2
	c-4-15.7-12.3-31.9-8-42.8c4.2-10.9,21-16.6,35.5-25.7c14.4-9.1,26.6-21.6,41.6-26.1C128.4-2.7,146.4,0.7,152.5,13.6z"/>
<g class="st1">
	<path class="st0" d="M117.5,13.6c6.1,12.9,0.4,35.3,2.3,50.9c1.8,15.5,11.3,24.3,12.6,33.5c1.2,9.2-5.7,18.8-12.7,30.3
		c-7.1,11.5-14.2,24.7-24.8,29.1c-10.6,4.3-24.5-0.1-38.8-4c-14.3-4-28.9-7.4-36.1-16.7c-7.1-9.3-6.8-24.5-10.8-40.2
		c-4-15.7-12.3-31.9-8-42.8c4.2-10.9,21-16.6,35.5-25.7C51.1,18.9,63.3,6.4,78.3,1.9C93.4-2.7,111.4,0.7,117.5,13.6z"/>
</g>
</svg>
