<?xml version="1.0" encoding="utf-8"?>
<!-- Generator: Adobe Illustrator 24.0.1, SVG Export Plug-In . SVG Version: 6.00 Build 0)  -->
<svg version="1.1" xmlns="http://www.w3.org/2000/svg" xmlns:xlink="http://www.w3.org/1999/xlink" x="0px" y="0px"
	 viewBox="0 0 155 34" style="enable-background:new 0 0 155 34;" xml:space="preserve">
<style type="text/css">
	.st0{display:none;}
	.st1{display:inline;fill:#2BABE2;}
	.st2{fill:#00AEEF;}
</style>
<g id="Layer_1" class="st0">
	<title>Artboard 1</title>
	<path class="st1" d="M38.3,26.6h-6.7c0.9-0.8,1.1-3.6,1.4-8.7l0.1-1.2c0.2-2.9,0.3-5.1,0.3-6.6c0-1.4-0.2-2.2-0.5-2.5h7.5
		c1.8,0,5.3,0.1,5.3,3.8c0,2.5-2.3,4-4.4,4.5c3,0.3,5.2,1.7,5.2,4.8C46.5,24,43.4,26.6,38.3,26.6 M38,17.4h-1.4l-0.2,2.8
		c-0.1,1.2-0.2,2.3-0.2,3.5c0,0.2,0.5,0.5,1.8,0.5c2.7,0,4.4-1.4,4.4-3.5C42.5,18.3,40.5,17.4,38,17.4 M38.6,9.8
		c-0.5,0-0.9,0-1.3,0.1c-0.2,1.4-0.3,2.6-0.4,4c0,0-0.1,1.2-0.1,1.1h0.5c2.4,0,4.7-0.9,4.7-3.1C41.9,10.7,40.8,9.8,38.6,9.8
		 M62.1,26.8c-1.6,0-1.8,0-3.1-4.5l-0.5-1.7c-1.4,0.5-2.9,0.6-4.4,0.5h-2.3L51.5,22c-0.4,0.9-1.3,2.7-1.3,3.8c0,0.3,0,0.6,0.1,0.9
		h-4.6c1.3-1.3,3-4.3,5.2-9.2l1.3-2.9c0.9-1.9,1.8-3.9,2.5-5.9c0-0.4-0.1-0.7-0.3-1.1h4.2c0,0,1.1,4.1,2.1,7.6l0.8,3
		c1.4,5.1,2.3,7.6,3.5,8.5C64,26.7,62.7,26.8,62.1,26.8 M56.1,12l-3.1,6.6h5L56.1,12 M80.2,27.4c-1.4,0-1.7-0.2-2.2-0.9l-5.4-7.4
		c-0.4-0.6-0.8-1-1.4-1h-0.1L71,19.6c-0.1,2-0.2,3.5-0.2,4.7s0.2,2.1,0.5,2.4h-5.2c0.8-0.6,1-2.9,1.5-8.7v-1.2
		c0.2-2.9,0.3-5.1,0.3-6.6c0-1.4-0.2-2.2-0.5-2.5h7c2.3,0,5.5,0.4,5.5,4.1c0,3.1-2,4.8-4.6,5.5c0.4,0.4,0.7,0.7,1,1.1l3.9,5.1
		c2.4,3.2,2.6,3.4,3.5,3.8C82.6,27.4,81.1,27.4,80.2,27.4 M73.3,9.8c-0.5,0-1,0-1.5,0.1c-0.2,0.8-0.3,2.2-0.4,4.5l-0.1,1.4
		c0.3,0,0.6,0.1,0.9,0.1c2.4,0,4-1.5,4-3.6C76.1,10.7,75.1,9.8,73.3,9.8 M90.4,27c-4.9,0-7.8-4.1-7.8-8.6c0-6.3,3.5-11.2,10-11.2
		c2,0,3,0.4,4.7,0.4l-0.5,4.9c-0.8-1.8-2.6-2.9-4.5-2.9c-4.1,0-5.7,4.4-5.7,8.2c0,4.1,2.3,6.4,5.3,6.4c1.7,0,3.1-0.4,5.6-2.2
		C96.7,25.1,93.7,27.2,90.4,27 M124,26.8c-1.6,0-1.7,0-3.1-4.5l-0.5-1.7c-1.4,0.5-2.9,0.6-4.4,0.5h-2.3l-0.4,0.9
		c-0.7,1.2-1.1,2.5-1.4,3.8c0,0.3,0.1,0.6,0.1,0.9H98.6c0.8-0.9,1-3.7,1.4-8.7l0.1-1.2c0.2-2.9,0.3-5.1,0.3-6.7
		c0.1-0.9-0.1-1.7-0.5-2.5h5.2c-0.8,0.5-1,3.6-1.3,8.7l-0.1,1.2c-0.1,1.9-0.4,3.8-0.4,5.7c0,0.9,0.3,1.1,1.3,1.1c3.2,0,3.9,0,5.4-1
		c0.9-1.6,1.9-3.7,2.9-5.8l1.3-2.9c1-1.9,1.8-3.9,2.5-5.9c0-0.4-0.1-0.7-0.3-1.1h4.2c0,0,1.7,6.2,2.1,7.6l0.8,3
		c1.4,5.1,2.3,7.6,3.5,8.5C126,26.8,124.6,26.8,124,26.8 M118,12l-3.1,6.6h5L118,12 M136,16.3c-0.5,0.8-0.9,1.6-1.4,2.5
		c-0.3,1.8-0.5,3.6-0.4,5.4c-0.1,0.8,0.1,1.7,0.5,2.4h-5.2c0.9-0.9,1.3-6.2,1.2-7.8c-0.8-2.6-1.8-5.1-3.1-7.5
		c-0.9-1.7-2-3.4-2.7-3.7c1.2-0.1,2.7-0.2,3.3-0.2c1.3,0,1.6,0.2,2.4,1.9c1.2,2.8,2.2,4.9,2.7,6.5c1.3-2.1,2.2-3.4,3.4-5.4
		c0.3-0.5,0.5-1,0.5-1.6c0-0.4-0.1-0.8-0.3-1.1h5.1C141.4,7.7,136.9,14.8,136,16.3 M153.2,12.1c-0.9-1.6-2.6-2.5-4.4-2.5
		c-1.6,0-3.1,0.6-3.1,2.4c0,1.5,1.8,2.4,3.7,3.7c2.1,1.3,4.2,2.9,4.2,5.6c0,3.6-3.5,5.8-7.5,5.8c-1.8,0-3.6-0.4-5.4-1l0.3-4.8
		c0.9,2.1,3,3.4,5.3,3.4c2,0,3.5-1,3.5-2.6c0-1.4-1.2-2.3-2.7-3.2c-3.1-1.9-5.1-3.4-5.1-6.1c0-4.1,3.4-5.5,7-5.5
		c2.1,0,3.4,0.4,4.6,0.4L153.2,12.1z"/>
	<path class="st1" d="M24.9,15.1c0,3.1-0.9,6-2.6,8.5c-0.1,0-0.1,0-0.2,0c-0.8-0.8-1.5-1.7-2-2.6c-0.2,0.1-0.2,0.3-0.2,0.5
		c0.2,1.2,0.6,2.3,1.2,3.3c0.3,0.4-0.2,0.8-0.5,0.5C19,24,17.8,22.3,17,20.5c-0.2,0.1-0.3,0.3-0.3,0.5c0.4,2,1.4,3.9,2.9,5.4
		c0,0,0.1,0.1,0,0.1c0,0,0,0,0,0c-2,1.7-4.3,3.1-6.8,3.9C10.3,29.7,8,28.4,6,26.6c-0.1-0.1-0.1-0.1,0-0.2C7.4,24.9,8.4,23,8.8,21
		c0-0.2-0.1-0.4-0.3-0.5c-0.8,1.8-2,3.4-3.5,4.8c-0.4,0.3-0.8-0.1-0.5-0.5c0.6-1,1-2.1,1.2-3.3c0-0.2-0.1-0.3-0.2-0.4
		c-0.5,1-1.2,1.9-2,2.6c-0.1,0-0.1,0-0.2,0c-1.8-2.5-2.7-5.5-2.7-8.5c0-5.7,2.4-7.5,4.5-7.5c1.4,0,2.3,0.8,2.3,1.7
		c0,0.5-0.3,1-0.8,1.1c0.4,0.5,1.1,0.8,1.8,0.7c1.5-0.1,2.4-0.9,2.4-2.9c0.1-0.9-0.6-1.6-1.4-1.7c-0.1,0-0.2,0-0.3,0
		c-0.5,0-0.8,0.1-0.9,0.3c-0.4-0.7,0.3-1.9,2.2-1.9h0.4c0.2-0.2,0.4-0.3,0.7-0.3c0.6,0,1.2,0,1.8,0.2c1.2,0.4,1.4,1.3,1.5,3.3
		s0.8,3,2.3,3.1c0.7,0.1,1.4-0.2,1.8-0.7c-0.5-0.2-0.8-0.6-0.8-1.1c0-1,0.9-1.7,2.3-1.7C22.5,7.6,24.9,9.4,24.9,15.1z"/>
</g>
<g id="Layer_2">
	<g>
		<path class="st2" d="M38.1,26.7h-6.6c0.8-0.7,1.1-3.6,1.4-8.7l0.1-1.2c0.2-2.9,0.3-5.1,0.3-6.6c0-1.3-0.2-2.2-0.5-2.5h7.4
			c1.8,0,5.3,0.1,5.3,3.8c0,2.5-2.3,4-4.4,4.5c3,0.3,5.2,1.7,5.2,4.8C46.3,24.1,43.2,26.7,38.1,26.7 M37.8,17.4h-1.3l-0.2,2.8
			c-0.1,1.2-0.1,2.3-0.2,3.5c0,0.2,0.5,0.5,1.8,0.5c2.7,0,4.4-1.3,4.4-3.5C42.3,18.3,40.3,17.4,37.8,17.4 M38.4,9.9
			c-0.4,0-0.9,0-1.3,0c-0.2,1.3-0.3,2.6-0.4,4l-0.1,1.2h0.5c2.4,0,4.6-0.8,4.6-3C41.7,10.7,40.7,9.9,38.4,9.9 M61.9,26.8
			c-1.6,0-1.7-0.1-3-4.5l-0.5-1.7C57.6,20.9,56.2,21,54,21h-2.3l-0.4,0.8c-0.4,0.9-1.4,2.7-1.3,3.8c0,0.2,0,0.5,0.1,0.9h-4.5
			c1.3-1.3,2.9-4.3,5.2-9.2l1.3-2.8c1.2-2.6,2.5-5.5,2.5-5.9c0-0.4-0.1-0.7-0.2-1.1h4.1c0,0,1.1,4.1,2,7.5l0.8,3
			c1.4,5,2.3,7.5,3.5,8.5C63.8,26.8,62.5,26.8,61.9,26.8 M56,12l-3.1,6.6h5L56,12 M80,27.5c-1.4,0-1.7-0.2-2.2-0.9l-5.3-7.4
			c-0.4-0.6-0.7-1-1.4-1H71l-0.1,1.4c-0.1,1.9-0.2,3.5-0.2,4.7c0,1.3,0.2,2.1,0.5,2.4H66c0.7-0.7,1-2.9,1.4-8.7l0.1-1.2
			c0.2-2.9,0.3-5.1,0.3-6.6c0-1.4-0.2-2.2-0.5-2.5c2.9,0,7,0,7,0c2.3,0,5.4,0.4,5.4,4.1c0,3.1-2,4.7-4.6,5.5c0.2,0.2,0.7,0.8,1,1.1
			l3.9,5.1c2.4,3.2,2.6,3.3,3.5,3.8C82.4,27.4,81,27.5,80,27.5 M73.2,9.9c-0.5,0-1,0-1.5,0.1c-0.1,0.8-0.3,2.2-0.4,4.5l-0.1,1.3
			c0.2,0,0.6,0.1,0.9,0.1c2.4,0,4-1.4,4-3.6C76,10.7,75,9.9,73.2,9.9 M90.1,27c-4.9,0-7.7-4-7.7-8.5c0-6.3,3.4-11.2,9.9-11.2
			c2,0,3,0.4,4.6,0.4l-0.4,4.8c-0.9-1.7-2.5-2.9-4.5-2.9c-4.1,0-5.7,4.4-5.7,8.1c0,4.1,2.3,6.3,5.3,6.3c1.7,0,3.1-0.4,5.5-2.1
			C96.3,25.1,94,27,90.1,27 M123.8,26.8c-1.6,0-1.7-0.1-3-4.5l-0.5-1.7c-0.8,0.4-2.2,0.5-4.4,0.5h-2.3l-0.4,0.8
			c-0.6,1.3-1.3,2.7-1.3,3.8c0,0.2,0,0.5,0.1,0.9H98.5c0.8-0.9,1-3.6,1.4-8.7l0.1-1.2c0.2-2.9,0.3-5.1,0.3-6.6
			c0-1.3-0.2-2.1-0.5-2.4h5.2c-0.7,0.6-1,3.6-1.4,8.6l-0.1,1.2c-0.1,1.9-0.4,3.8-0.4,5.7c0,0.9,0.3,1.1,1.2,1.1c3.1,0,3.9-0.1,5.4-1
			c0.9-1.6,1.9-3.7,2.9-5.8l1.3-2.8c1.3-2.7,2.5-5.4,2.5-5.9c0-0.4-0.1-0.7-0.2-1.1h4.1c0,0,1.7,6.2,2,7.5l0.8,3
			c1.4,5,2.3,7.5,3.5,8.5C125.7,26.8,124.3,26.8,123.8,26.8 M117.8,12l-3,6.6h5L117.8,12 M135.7,16.3c-0.4,0.7-1,1.7-1.3,2.5
			c-0.3,1.4-0.4,3.3-0.4,5.3c0,0.9,0.1,2,0.5,2.4h-5.1c0.9-0.9,1.3-6.1,1.2-7.8c-0.7-2.4-1.6-4.7-3.1-7.5c-0.9-1.7-2-3.4-2.6-3.7
			c1.2-0.1,2.6-0.2,3.3-0.2c1.3,0,1.6,0.2,2.4,1.9c1.2,2.8,2.1,4.9,2.7,6.4c1.3-2,2.2-3.5,3.4-5.4c0.3-0.5,0.5-1.1,0.5-1.6
			c0-0.4-0.1-0.9-0.3-1.1h5.1C141.1,7.8,136.6,14.8,135.7,16.3 M153,12.1c-0.8-1.4-2.5-2.5-4.3-2.5c-1.6,0-3,0.7-3,2.4
			c0,1.5,1.8,2.4,3.7,3.6c2,1.3,4.2,2.9,4.2,5.6c0,3.6-3.5,5.7-7.5,5.7c-1.6,0-3.4-0.3-5.3-1l0.3-4.8c0.9,1.9,2.7,3.4,5.3,3.4
			c2,0,3.5-1,3.5-2.6c0-1.4-1.2-2.3-2.7-3.2c-3.1-1.9-5.1-3.4-5.1-6.1c0-4.1,3.4-5.4,6.9-5.4c2,0,3.3,0.4,4.6,0.4L153,12.1z
			 M24.5,13.3c0.1,1.2,0.1,2.2,0,3.2C24.4,18,24.1,19,23.7,20c-0.4,1-0.9,2-1.4,2.8l0,0c-0.2,0.3-0.3,0.5-0.3,0.5l0,0
			c-0.1-0.1-0.2-0.2-0.3-0.3c-0.2-0.2-0.8-1-0.9-1.2s-0.5-0.7-0.6-1l-0.1-0.2l-0.2,0.1c-0.3,0.2-0.4,0.4-0.4,0.7
			c0,0.2,0.1,0.5,0.2,1c0.2,0.5,0.4,1.2,0.7,1.8c0,0.1,0.1,0.1,0.1,0.2c0.2,0.4,0.3,0.6,0.2,0.6l0,0c-0.1,0-0.4-0.1-0.6-0.3
			c-0.2-0.2-0.9-0.7-1.7-1.8c-0.6-0.8-1-1.6-1.5-2.6l-0.1-0.1c0,0-0.1,0-0.2,0.1c-0.1,0-0.1,0.1-0.2,0.2c-0.1,0.2-0.1,0.4-0.1,0.6
			c0.1,0.6,0.4,1.5,0.7,2.1c0.5,1.1,1.3,2.3,1.9,3.1l0.1,0.1l0.1,0.1c-0.1,0.1-0.2,0.2-0.3,0.3l-0.2,0.2c-0.8,0.7-1.7,1.3-2.7,1.8
			c-0.8,0.4-2.4,1.3-3.4,1.5c-1.1-0.3-2.7-1.1-3.4-1.5c-1-0.6-1.8-1.1-2.7-1.8l-0.2-0.2c-0.2-0.1-0.3-0.2-0.3-0.3l0.2-0.2
			c0.6-0.8,1.5-2,1.9-3.1c0.3-0.6,0.6-1.5,0.7-2.1c0-0.2,0-0.4-0.1-0.6c0-0.1-0.1-0.1-0.2-0.2l-0.1-0.1l-0.1,0.1
			c-0.5,1-0.9,1.8-1.5,2.6c-0.8,1.1-1.4,1.6-1.7,1.8c-0.3,0.2-0.5,0.3-0.6,0.3l0,0l0,0c-0.1-0.1,0-0.3,0.2-0.6
			c0-0.1,0.1-0.1,0.1-0.2C5,23.7,5.3,23,5.4,22.4c0.1-0.5,0.2-0.8,0.2-1c0-0.3-0.1-0.5-0.3-0.6l-0.2-0.1L5,20.9
			c-0.2,0.3-0.5,0.8-0.6,1c-0.2,0.2-0.7,1-0.9,1.2c-0.1,0.1-0.2,0.2-0.3,0.3l0,0c-0.1-0.1-0.2-0.3-0.4-0.6c-0.5-0.9-1-1.8-1.4-2.9
			c-0.4-1-0.6-1.9-0.8-3.5c-0.1-0.9-0.1-2,0-3.2C0.6,12.1,1,10.9,1.4,10C2,8.7,2.9,8,3.9,7.7c0.2,0,0.6-0.1,1.1-0.1
			c0.8,0,1.4,0.3,1.9,0.8c0.2,0.2,0.3,0.6,0.2,1C7,9.8,6.7,10,6.4,10.1c-0.1,0-0.2,0.1-0.2,0.1s0,0,0.1,0.2c0.3,0.5,0.9,0.8,1.8,0.8
			c0.2,0,0.4,0,0.6,0c1.2-0.2,1.7-0.9,1.9-2.4c0.1-0.6,0.1-1-0.2-1.6c-0.2-0.5-1-0.8-1.5-0.8C8.4,6.4,8.2,6.5,8,6.7V6.6
			C7.9,6.5,7.9,6.4,7.9,6.1C8,5.8,8.2,5.5,8.3,5.4C8.6,5.2,8.9,5,9.4,4.9c0.2-0.1,0.5-0.1,0.8-0.1c0.1,0,0.3,0,0.4,0c0,0,0,0,0.1,0
			c0.2-0.2,0.4-0.3,1-0.3c0.4,0,0.9,0,1.3,0.2c0.4,0.1,0.5,0.2,0.8,0.4c0.2,0.2,0.5,0.5,0.6,0.8c0,0.3,0.1,0.9,0.1,1.6
			c0,1.3,0.2,2.2,0.6,2.6c0.6,0.8,1.1,0.9,1.7,1h0.1c1.2,0,1.6-0.4,1.8-0.7c0,0,0.1-0.1,0.1-0.2c-0.2,0-0.2-0.1-0.2-0.1
			C18.3,10,18.1,9.7,18,9.4c-0.1-0.4,0-0.8,0.2-1.1c0.6-0.7,1.4-0.8,1.8-0.8h0.1c0.3,0,0.7,0.1,1,0.2c0.4,0.1,0.8,0.3,1.1,0.6
			c0.6,0.5,1,1.2,1.3,1.7C24,10.9,24.4,12.1,24.5,13.3z"/>
	</g>
</g>
</svg>
